<mxfile host="app.diagrams.net" modified="2020-05-12T18:56:35.687Z" agent="5.0 (Windows NT 10.0; Win64; x64) AppleWebKit/537.36 (KHTML, like Gecko) Chrome/81.0.4044.138 Safari/537.36" etag="ZNTI3GbhWSjhlroIRPM3" version="13.1.0" type="github">
  <diagram id="jHp6_4DuvMzHGEztCGKe" name="Page-1">
    <mxGraphModel dx="782" dy="469" grid="1" gridSize="10" guides="1" tooltips="1" connect="1" arrows="1" fold="1" page="1" pageScale="1" pageWidth="827" pageHeight="1169" math="0" shadow="0">
      <root>
        <mxCell id="0" />
        <mxCell id="1" parent="0" />
        <mxCell id="qf6Emk00zKGyS2mYEl3T-1" value="" style="ellipse;html=1;shape=startState;fillColor=#000000;strokeColor=#ff0000;" parent="1" vertex="1">
          <mxGeometry x="384" y="30" width="30" height="30" as="geometry" />
        </mxCell>
        <mxCell id="qf6Emk00zKGyS2mYEl3T-2" value="" style="edgeStyle=orthogonalEdgeStyle;html=1;verticalAlign=bottom;endArrow=open;endSize=8;strokeColor=#ff0000;" parent="1" source="qf6Emk00zKGyS2mYEl3T-1" edge="1">
          <mxGeometry relative="1" as="geometry">
            <mxPoint x="399" y="120" as="targetPoint" />
          </mxGeometry>
        </mxCell>
        <mxCell id="qf6Emk00zKGyS2mYEl3T-3" value="Go to Dashboard/ Employees" style="rounded=1;whiteSpace=wrap;html=1;arcSize=40;fontColor=#000000;fillColor=#ffffc0;strokeColor=#ff0000;" parent="1" vertex="1">
          <mxGeometry x="339" y="120" width="120" height="40" as="geometry" />
        </mxCell>
        <mxCell id="qf6Emk00zKGyS2mYEl3T-4" value="" style="edgeStyle=orthogonalEdgeStyle;html=1;verticalAlign=bottom;endArrow=open;endSize=8;strokeColor=#ff0000;" parent="1" source="qf6Emk00zKGyS2mYEl3T-3" edge="1">
          <mxGeometry relative="1" as="geometry">
            <mxPoint x="399" y="220" as="targetPoint" />
          </mxGeometry>
        </mxCell>
        <mxCell id="qf6Emk00zKGyS2mYEl3T-5" value="Check Employee Requests for shift change/ Day off" style="rounded=1;whiteSpace=wrap;html=1;arcSize=40;fontColor=#000000;fillColor=#ffffc0;strokeColor=#ff0000;" parent="1" vertex="1">
          <mxGeometry x="339" y="220" width="120" height="40" as="geometry" />
        </mxCell>
        <mxCell id="qf6Emk00zKGyS2mYEl3T-6" value="" style="edgeStyle=orthogonalEdgeStyle;html=1;verticalAlign=bottom;endArrow=open;endSize=8;strokeColor=#ff0000;" parent="1" source="qf6Emk00zKGyS2mYEl3T-5" edge="1">
          <mxGeometry relative="1" as="geometry">
            <mxPoint x="399" y="320" as="targetPoint" />
          </mxGeometry>
        </mxCell>
        <mxCell id="qf6Emk00zKGyS2mYEl3T-7" value="" style="rhombus;whiteSpace=wrap;html=1;fillColor=#ffffc0;strokeColor=#ff0000;" parent="1" vertex="1">
          <mxGeometry x="359" y="320" width="80" height="40" as="geometry" />
        </mxCell>
        <mxCell id="qf6Emk00zKGyS2mYEl3T-8" value="" style="edgeStyle=orthogonalEdgeStyle;html=1;align=left;verticalAlign=bottom;endArrow=open;endSize=8;strokeColor=#ff0000;entryX=0;entryY=0.5;entryDx=0;entryDy=0;" parent="1" source="qf6Emk00zKGyS2mYEl3T-7" target="qf6Emk00zKGyS2mYEl3T-22" edge="1">
          <mxGeometry x="-1" relative="1" as="geometry">
            <mxPoint x="580" y="340" as="targetPoint" />
            <Array as="points" />
          </mxGeometry>
        </mxCell>
        <mxCell id="qf6Emk00zKGyS2mYEl3T-9" value="" style="edgeStyle=orthogonalEdgeStyle;html=1;align=left;verticalAlign=top;endArrow=open;endSize=8;strokeColor=#ff0000;exitX=0.5;exitY=1;exitDx=0;exitDy=0;" parent="1" source="qf6Emk00zKGyS2mYEl3T-7" edge="1">
          <mxGeometry x="-1" relative="1" as="geometry">
            <mxPoint x="399" y="420" as="targetPoint" />
            <mxPoint x="390" y="370" as="sourcePoint" />
          </mxGeometry>
        </mxCell>
        <mxCell id="qf6Emk00zKGyS2mYEl3T-10" value="Free&lt;br&gt;&amp;nbsp;Employees" style="text;html=1;align=center;verticalAlign=middle;resizable=0;points=[];autosize=1;" parent="1" vertex="1">
          <mxGeometry x="329" y="365" width="80" height="30" as="geometry" />
        </mxCell>
        <mxCell id="qf6Emk00zKGyS2mYEl3T-11" value="No other Employees&lt;br&gt;Off that day" style="text;html=1;align=center;verticalAlign=middle;resizable=0;points=[];autosize=1;" parent="1" vertex="1">
          <mxGeometry x="414" y="305" width="120" height="30" as="geometry" />
        </mxCell>
        <mxCell id="qf6Emk00zKGyS2mYEl3T-12" value="Send a request&amp;nbsp; to an available Employee for shift Change" style="rounded=1;whiteSpace=wrap;html=1;arcSize=40;fontColor=#000000;fillColor=#ffffc0;strokeColor=#ff0000;" parent="1" vertex="1">
          <mxGeometry x="339" y="420" width="120" height="40" as="geometry" />
        </mxCell>
        <mxCell id="qf6Emk00zKGyS2mYEl3T-13" value="" style="edgeStyle=orthogonalEdgeStyle;html=1;verticalAlign=bottom;endArrow=open;endSize=8;strokeColor=#ff0000;" parent="1" source="qf6Emk00zKGyS2mYEl3T-12" edge="1">
          <mxGeometry relative="1" as="geometry">
            <mxPoint x="399" y="520" as="targetPoint" />
          </mxGeometry>
        </mxCell>
        <mxCell id="qf6Emk00zKGyS2mYEl3T-14" value="" style="rhombus;whiteSpace=wrap;html=1;fillColor=#ffffc0;strokeColor=#ff0000;" parent="1" vertex="1">
          <mxGeometry x="359" y="520" width="80" height="40" as="geometry" />
        </mxCell>
        <mxCell id="qf6Emk00zKGyS2mYEl3T-15" value="Rejects" style="edgeStyle=orthogonalEdgeStyle;html=1;align=left;verticalAlign=bottom;endArrow=open;endSize=8;strokeColor=#ff0000;" parent="1" source="qf6Emk00zKGyS2mYEl3T-14" edge="1">
          <mxGeometry x="-1" relative="1" as="geometry">
            <mxPoint x="540" y="540" as="targetPoint" />
          </mxGeometry>
        </mxCell>
        <mxCell id="qf6Emk00zKGyS2mYEl3T-16" value="" style="edgeStyle=orthogonalEdgeStyle;html=1;align=left;verticalAlign=top;endArrow=open;endSize=8;strokeColor=#ff0000;exitX=0.5;exitY=1;exitDx=0;exitDy=0;" parent="1" source="qf6Emk00zKGyS2mYEl3T-14" edge="1">
          <mxGeometry x="-1" relative="1" as="geometry">
            <mxPoint x="399" y="620" as="targetPoint" />
          </mxGeometry>
        </mxCell>
        <mxCell id="qf6Emk00zKGyS2mYEl3T-17" value="Accepts" style="text;html=1;align=center;verticalAlign=middle;resizable=0;points=[];autosize=1;" parent="1" vertex="1">
          <mxGeometry x="339" y="575" width="60" height="20" as="geometry" />
        </mxCell>
        <mxCell id="qf6Emk00zKGyS2mYEl3T-18" value="Check for another Employee" style="rounded=1;whiteSpace=wrap;html=1;arcSize=40;fontColor=#000000;fillColor=#ffffc0;strokeColor=#ff0000;" parent="1" vertex="1">
          <mxGeometry x="540" y="520" width="120" height="40" as="geometry" />
        </mxCell>
        <mxCell id="qf6Emk00zKGyS2mYEl3T-19" value="" style="edgeStyle=orthogonalEdgeStyle;html=1;verticalAlign=bottom;endArrow=open;endSize=8;strokeColor=#ff0000;" parent="1" source="qf6Emk00zKGyS2mYEl3T-18" edge="1">
          <mxGeometry relative="1" as="geometry">
            <mxPoint x="460" y="440" as="targetPoint" />
            <Array as="points">
              <mxPoint x="590" y="440" />
            </Array>
          </mxGeometry>
        </mxCell>
        <mxCell id="qf6Emk00zKGyS2mYEl3T-20" value="Employee&#39;s Shift is changed &amp;amp; Employee is informed" style="rounded=1;whiteSpace=wrap;html=1;arcSize=40;fontColor=#000000;fillColor=#ffffc0;strokeColor=#ff0000;" parent="1" vertex="1">
          <mxGeometry x="339" y="620" width="120" height="40" as="geometry" />
        </mxCell>
        <mxCell id="qf6Emk00zKGyS2mYEl3T-21" value="" style="edgeStyle=orthogonalEdgeStyle;html=1;verticalAlign=bottom;endArrow=open;endSize=8;strokeColor=#ff0000;entryX=0.308;entryY=0.4;entryDx=0;entryDy=0;entryPerimeter=0;exitX=0.617;exitY=1.067;exitDx=0;exitDy=0;exitPerimeter=0;" parent="1" source="qf6Emk00zKGyS2mYEl3T-20" target="qf6Emk00zKGyS2mYEl3T-26" edge="1">
          <mxGeometry relative="1" as="geometry">
            <mxPoint x="399" y="720" as="targetPoint" />
            <Array as="points">
              <mxPoint x="413" y="690" />
              <mxPoint x="592" y="690" />
            </Array>
          </mxGeometry>
        </mxCell>
        <mxCell id="qf6Emk00zKGyS2mYEl3T-22" value="Shift cannot be changed" style="rounded=1;whiteSpace=wrap;html=1;arcSize=40;fontColor=#000000;fillColor=#ffffc0;strokeColor=#ff0000;" parent="1" vertex="1">
          <mxGeometry x="640" y="320" width="120" height="40" as="geometry" />
        </mxCell>
        <mxCell id="qf6Emk00zKGyS2mYEl3T-23" value="" style="edgeStyle=orthogonalEdgeStyle;html=1;verticalAlign=bottom;endArrow=open;endSize=8;strokeColor=#ff0000;" parent="1" source="qf6Emk00zKGyS2mYEl3T-22" edge="1">
          <mxGeometry relative="1" as="geometry">
            <mxPoint x="710" y="450" as="targetPoint" />
            <Array as="points">
              <mxPoint x="710" y="450" />
            </Array>
          </mxGeometry>
        </mxCell>
        <mxCell id="qf6Emk00zKGyS2mYEl3T-24" value="Employee is Informed" style="rounded=1;whiteSpace=wrap;html=1;arcSize=40;fontColor=#000000;fillColor=#ffffc0;strokeColor=#ff0000;" parent="1" vertex="1">
          <mxGeometry x="650" y="450" width="120" height="40" as="geometry" />
        </mxCell>
        <mxCell id="qf6Emk00zKGyS2mYEl3T-25" value="" style="edgeStyle=orthogonalEdgeStyle;html=1;verticalAlign=bottom;endArrow=open;endSize=8;strokeColor=#ff0000;entryX=0.75;entryY=0.5;entryDx=0;entryDy=0;entryPerimeter=0;" parent="1" source="qf6Emk00zKGyS2mYEl3T-24" target="qf6Emk00zKGyS2mYEl3T-26" edge="1">
          <mxGeometry relative="1" as="geometry">
            <mxPoint x="710" y="550" as="targetPoint" />
          </mxGeometry>
        </mxCell>
        <mxCell id="qf6Emk00zKGyS2mYEl3T-26" value="" style="shape=line;html=1;strokeWidth=6;strokeColor=#ff0000;" parent="1" vertex="1">
          <mxGeometry x="530" y="740" width="200" height="10" as="geometry" />
        </mxCell>
        <mxCell id="qf6Emk00zKGyS2mYEl3T-27" value="" style="edgeStyle=orthogonalEdgeStyle;html=1;verticalAlign=bottom;endArrow=open;endSize=8;strokeColor=#ff0000;" parent="1" source="qf6Emk00zKGyS2mYEl3T-28" edge="1">
          <mxGeometry relative="1" as="geometry">
            <mxPoint x="630" y="820" as="targetPoint" />
          </mxGeometry>
        </mxCell>
        <mxCell id="qf6Emk00zKGyS2mYEl3T-28" value="" style="ellipse;html=1;shape=endState;fillColor=#000000;strokeColor=#ff0000;" parent="1" vertex="1">
          <mxGeometry x="615" y="830" width="30" height="30" as="geometry" />
        </mxCell>
        <mxCell id="qf6Emk00zKGyS2mYEl3T-29" value="" style="edgeStyle=orthogonalEdgeStyle;html=1;verticalAlign=bottom;endArrow=open;endSize=8;strokeColor=#ff0000;" parent="1" source="qf6Emk00zKGyS2mYEl3T-26" target="qf6Emk00zKGyS2mYEl3T-28" edge="1">
          <mxGeometry relative="1" as="geometry">
            <mxPoint x="630" y="820" as="targetPoint" />
            <mxPoint x="630" y="750" as="sourcePoint" />
          </mxGeometry>
        </mxCell>
      </root>
    </mxGraphModel>
  </diagram>
</mxfile>
